<svg preserveAspectRatio="none" width="100%" height="100%" overflow="visible" style="display: block;" viewBox="0 0 1379 216.522" fill="none" xmlns="http://www.w3.org/2000/svg">
<g id="&#208;&#161;&#208;&#156;&#208;&#171;&#208;&#161;&#208;&#155;">
<mask id="path-1-outside-1_0_5" maskUnits="userSpaceOnUse" x="0" y="0" width="1379" height="217" fill="black">
<rect fill="white" width="1379" height="217"/>
<path d="M259 124.995C256.815 143.1 250.062 159.011 238.741 172.727C227.42 186.261 212.524 196.776 194.053 204.275C175.781 211.773 154.727 215.522 130.894 215.522C104.875 215.522 82.1339 211.041 62.6697 202.08C43.2055 193.119 28.0115 180.591 17.0878 164.497C6.36259 148.404 1 129.658 1 108.261C1 86.8636 6.36259 68.1181 17.0878 52.0244C28.0115 35.9307 43.2055 23.4032 62.6697 14.4419C82.1339 5.48064 104.875 1 130.894 1C154.727 1 175.781 4.7491 194.053 12.2473C212.524 19.7455 227.42 30.3527 238.741 44.069C250.062 57.6023 256.815 73.4217 259 91.5271H197.032C195.046 82.7487 191.173 75.342 185.413 69.3068C179.654 63.0888 172.106 58.3339 162.771 55.042C153.635 51.7501 143.009 50.1041 130.894 50.1041C116.991 50.1041 104.975 52.4816 94.8453 57.2365C84.7159 61.8086 76.97 68.4839 71.6074 77.2622C66.2448 85.8578 63.5635 96.1907 63.5635 108.261C63.5635 120.331 66.2448 130.756 71.6074 139.534C76.97 148.129 84.7159 154.805 94.8453 159.56C104.975 164.132 116.991 166.418 130.894 166.418C143.009 166.418 153.635 164.863 162.771 161.754C172.106 158.645 179.654 153.982 185.413 147.764C191.173 141.546 195.046 133.956 197.032 124.995H259ZM397.674 5.38919V211.133H376.644V25.6892L381.341 27.0608L350.383 211.133H327.965L296.9 27.6095L301.704 26.2379V211.133H280.674V5.38919H314.835L343.551 182.054H335.011L363.513 5.38919H397.674ZM419.747 211.133V5.38919H473.53V191.93L449.367 166.418H525.234C534.067 166.418 540.909 164.04 545.759 159.285C550.782 154.53 553.294 148.129 553.294 140.083C553.294 131.853 550.782 125.452 545.759 120.88C540.909 116.308 534.067 114.022 525.234 114.022H444.69V69.0325H528.611C545.066 69.0325 559.183 72.0501 570.962 78.0852C582.913 83.9375 592.007 92.1672 598.243 102.774C604.652 113.382 607.856 125.818 607.856 140.083C607.856 154.347 604.652 166.875 598.243 177.665C592.007 188.272 582.913 196.502 570.962 202.354C559.183 208.207 545.066 211.133 528.611 211.133H419.747ZM623.965 5.38919H677.747V211.133H623.965V5.38919ZM1098.56 124.995C1095.18 143.1 1084.74 159.011 1067.23 172.727C1049.72 186.261 1026.69 196.776 998.121 204.275C969.862 211.773 937.303 215.522 900.444 215.522C860.206 215.522 825.036 211.041 794.935 202.08C764.833 193.119 741.336 180.591 724.442 164.497C707.855 148.404 699.562 129.658 699.562 108.261C699.562 86.8636 707.855 68.1181 724.442 52.0244C741.336 35.9307 764.833 23.4032 794.935 14.4419C825.036 5.48064 860.206 1 900.444 1C937.303 1 969.862 4.7491 998.121 12.2473C1026.69 19.7455 1049.72 30.3527 1067.23 44.069C1084.74 57.6023 1095.18 73.4217 1098.56 91.5271H1002.73C999.657 82.7487 993.667 75.342 984.759 69.3068C975.852 63.0888 964.18 58.3339 949.743 55.042C935.614 51.7501 919.181 50.1041 900.444 50.1041C878.943 50.1041 860.36 52.4816 844.695 57.2365C829.03 61.8086 817.05 68.4839 808.757 77.2622C800.464 85.8578 796.317 96.1907 796.317 108.261C796.317 120.331 800.464 130.756 808.757 139.534C817.05 148.129 829.03 154.805 844.695 159.56C860.36 164.132 878.943 166.418 900.444 166.418C919.181 166.418 935.614 164.863 949.743 161.754C964.18 158.645 975.852 153.982 984.759 147.764C993.667 141.546 999.657 133.956 1002.73 124.995H1098.56ZM1170.92 5.38919H1378V211.133H1319.48V30.0784L1345.93 55.8649H1203.56L1228.04 36.9365C1229.54 49.0068 1230.57 60.6199 1231.13 71.7758C1231.7 82.7488 1231.98 93.1731 1231.98 103.049C1231.98 129.384 1229.54 150.873 1224.66 167.515C1219.79 183.975 1212.1 196.045 1201.59 203.726C1191.09 211.407 1177.49 215.248 1160.8 215.248C1153.48 215.248 1146.26 214.516 1139.13 213.053C1132.19 211.59 1125.81 209.395 1120 206.469V159.285C1128.25 162.394 1135.85 163.949 1142.79 163.949C1154.98 163.949 1163.7 158.554 1168.96 147.764C1174.39 136.974 1177.11 119.325 1177.11 94.819C1177.11 82.9316 1176.55 69.5812 1175.43 54.7676C1174.49 39.9541 1172.99 23.4946 1170.92 5.38919Z"/>
</mask>
<path d="M259 124.995C256.815 143.1 250.062 159.011 238.741 172.727C227.42 186.261 212.524 196.776 194.053 204.275C175.781 211.773 154.727 215.522 130.894 215.522C104.875 215.522 82.1339 211.041 62.6697 202.08C43.2055 193.119 28.0115 180.591 17.0878 164.497C6.36259 148.404 1 129.658 1 108.261C1 86.8636 6.36259 68.1181 17.0878 52.0244C28.0115 35.9307 43.2055 23.4032 62.6697 14.4419C82.1339 5.48064 104.875 1 130.894 1C154.727 1 175.781 4.7491 194.053 12.2473C212.524 19.7455 227.42 30.3527 238.741 44.069C250.062 57.6023 256.815 73.4217 259 91.5271H197.032C195.046 82.7487 191.173 75.342 185.413 69.3068C179.654 63.0888 172.106 58.3339 162.771 55.042C153.635 51.7501 143.009 50.1041 130.894 50.1041C116.991 50.1041 104.975 52.4816 94.8453 57.2365C84.7159 61.8086 76.97 68.4839 71.6074 77.2622C66.2448 85.8578 63.5635 96.1907 63.5635 108.261C63.5635 120.331 66.2448 130.756 71.6074 139.534C76.97 148.129 84.7159 154.805 94.8453 159.56C104.975 164.132 116.991 166.418 130.894 166.418C143.009 166.418 153.635 164.863 162.771 161.754C172.106 158.645 179.654 153.982 185.413 147.764C191.173 141.546 195.046 133.956 197.032 124.995H259ZM397.674 5.38919V211.133H376.644V25.6892L381.341 27.0608L350.383 211.133H327.965L296.9 27.6095L301.704 26.2379V211.133H280.674V5.38919H314.835L343.551 182.054H335.011L363.513 5.38919H397.674ZM419.747 211.133V5.38919H473.53V191.93L449.367 166.418H525.234C534.067 166.418 540.909 164.04 545.759 159.285C550.782 154.53 553.294 148.129 553.294 140.083C553.294 131.853 550.782 125.452 545.759 120.88C540.909 116.308 534.067 114.022 525.234 114.022H444.69V69.0325H528.611C545.066 69.0325 559.183 72.0501 570.962 78.0852C582.913 83.9375 592.007 92.1672 598.243 102.774C604.652 113.382 607.856 125.818 607.856 140.083C607.856 154.347 604.652 166.875 598.243 177.665C592.007 188.272 582.913 196.502 570.962 202.354C559.183 208.207 545.066 211.133 528.611 211.133H419.747ZM623.965 5.38919H677.747V211.133H623.965V5.38919ZM1098.56 124.995C1095.18 143.1 1084.74 159.011 1067.23 172.727C1049.72 186.261 1026.69 196.776 998.121 204.275C969.862 211.773 937.303 215.522 900.444 215.522C860.206 215.522 825.036 211.041 794.935 202.08C764.833 193.119 741.336 180.591 724.442 164.497C707.855 148.404 699.562 129.658 699.562 108.261C699.562 86.8636 707.855 68.1181 724.442 52.0244C741.336 35.9307 764.833 23.4032 794.935 14.4419C825.036 5.48064 860.206 1 900.444 1C937.303 1 969.862 4.7491 998.121 12.2473C1026.69 19.7455 1049.72 30.3527 1067.23 44.069C1084.74 57.6023 1095.18 73.4217 1098.56 91.5271H1002.73C999.657 82.7487 993.667 75.342 984.759 69.3068C975.852 63.0888 964.18 58.3339 949.743 55.042C935.614 51.7501 919.181 50.1041 900.444 50.1041C878.943 50.1041 860.36 52.4816 844.695 57.2365C829.03 61.8086 817.05 68.4839 808.757 77.2622C800.464 85.8578 796.317 96.1907 796.317 108.261C796.317 120.331 800.464 130.756 808.757 139.534C817.05 148.129 829.03 154.805 844.695 159.56C860.36 164.132 878.943 166.418 900.444 166.418C919.181 166.418 935.614 164.863 949.743 161.754C964.18 158.645 975.852 153.982 984.759 147.764C993.667 141.546 999.657 133.956 1002.73 124.995H1098.56ZM1170.92 5.38919H1378V211.133H1319.48V30.0784L1345.93 55.8649H1203.56L1228.04 36.9365C1229.54 49.0068 1230.57 60.6199 1231.13 71.7758C1231.7 82.7488 1231.98 93.1731 1231.98 103.049C1231.98 129.384 1229.54 150.873 1224.66 167.515C1219.79 183.975 1212.1 196.045 1201.59 203.726C1191.09 211.407 1177.49 215.248 1160.8 215.248C1153.48 215.248 1146.26 214.516 1139.13 213.053C1132.19 211.59 1125.81 209.395 1120 206.469V159.285C1128.25 162.394 1135.85 163.949 1142.79 163.949C1154.98 163.949 1163.7 158.554 1168.96 147.764C1174.39 136.974 1177.11 119.325 1177.11 94.819C1177.11 82.9316 1176.55 69.5812 1175.43 54.7676C1174.49 39.9541 1172.99 23.4946 1170.92 5.38919Z" stroke="var(--stroke-0, #FCF8C9)" stroke-width="2" mask="url(#path-1-outside-1_0_5)"/>
</g>
</svg>
