<svg preserveAspectRatio="none" width="100%" height="100%" overflow="visible" style="display: block;" viewBox="0 0 542 86" fill="none" xmlns="http://www.w3.org/2000/svg">
<g id="&#208;&#161;&#208;&#156;&#208;&#171;&#208;&#161;&#208;&#155;">
<mask id="path-1-outside-1_0_4" maskUnits="userSpaceOnUse" x="0" y="0" width="542" height="86" fill="black">
<rect fill="white" width="542" height="86"/>
<path d="M102.176 49.5524C101.32 56.6419 98.6715 62.8721 94.2319 68.243C89.7923 73.5422 83.9507 77.6598 76.7071 80.5959C69.5414 83.532 61.2853 85 51.9387 85C41.7354 85 32.8172 83.2455 25.1842 79.7366C17.5512 76.2276 11.5928 71.3223 7.30893 65.0205C3.10297 58.7187 1 51.3785 1 43C1 34.6215 3.10297 27.2813 7.30893 20.9795C11.5928 14.6777 17.5512 9.77238 25.1842 6.26343C32.8172 2.75448 41.7354 1 51.9387 1C61.2853 1 69.5414 2.46803 76.7071 5.40409C83.9507 8.34015 89.7923 12.4936 94.2319 17.8645C98.6715 23.1637 101.32 29.3581 102.176 36.4476H77.8754C77.0965 33.0102 75.5777 30.11 73.319 27.7468C71.0602 25.312 68.1005 23.4501 64.4398 22.1611C60.8569 20.8721 56.6899 20.2276 51.9387 20.2276C46.4866 20.2276 41.7743 21.1586 37.8021 23.0205C33.8298 24.8107 30.7921 27.4246 28.6892 30.8619C26.5862 34.2276 25.5347 38.2737 25.5347 43C25.5347 47.7263 26.5862 51.8082 28.6892 55.2455C30.7921 58.6113 33.8298 61.2251 37.8021 63.087C41.7743 64.8772 46.4866 65.7724 51.9387 65.7724C56.6899 65.7724 60.8569 65.1637 64.4398 63.9463C68.1005 62.7289 71.0602 60.9028 73.319 58.468C75.5777 56.0333 77.0965 53.0614 77.8754 49.5524H102.176ZM156.558 2.71867V83.2813H148.311V10.6675L150.153 11.2046L138.013 83.2813H129.222L117.039 11.4194L118.923 10.8824V83.2813H110.676V2.71867H124.072L135.334 71.8951H131.985L143.162 2.71867H156.558ZM165.215 83.2813V2.71867H186.306V75.7622L176.83 65.7724H206.582C210.046 65.7724 212.729 64.8414 214.631 62.9795C216.601 61.1176 217.586 58.6113 217.586 55.4604C217.586 52.2378 216.601 49.7315 214.631 47.9412C212.729 46.1509 210.046 45.2558 206.582 45.2558H174.996V27.6394H207.906C214.359 27.6394 219.895 28.821 224.514 31.1841C229.201 33.4757 232.767 36.6982 235.213 40.8517C237.726 45.0051 238.983 49.8747 238.983 55.4604C238.983 61.046 237.726 65.9514 235.213 70.1765C232.767 74.3299 229.201 77.5524 224.514 79.844C219.895 82.1355 214.359 83.2813 207.906 83.2813H165.215ZM245.3 2.71867H266.391V83.2813H245.3V2.71867ZM431.416 49.5524C430.091 56.6419 425.996 62.8721 419.13 68.243C412.264 73.5422 403.23 77.6598 392.028 80.5959C380.946 83.532 368.178 85 353.723 85C337.944 85 324.152 83.2455 312.347 79.7366C300.542 76.2276 291.328 71.3223 284.703 65.0205C278.198 58.7187 274.946 51.3785 274.946 43C274.946 34.6215 278.198 27.2813 284.703 20.9795C291.328 14.6777 300.542 9.77238 312.347 6.26343C324.152 2.75448 337.944 1 353.723 1C368.178 1 380.946 2.46803 392.028 5.40409C403.23 8.34015 412.264 12.4936 419.13 17.8645C425.996 23.1637 430.091 29.3581 431.416 36.4476H393.835C392.63 33.0102 390.281 30.11 386.788 27.7468C383.295 25.312 378.718 23.4501 373.056 22.1611C367.515 20.8721 361.071 20.2276 353.723 20.2276C345.291 20.2276 338.004 21.1586 331.861 23.0205C325.718 24.8107 321.02 27.4246 317.767 30.8619C314.515 34.2276 312.889 38.2737 312.889 43C312.889 47.7263 314.515 51.8082 317.767 55.2455C321.02 58.6113 325.718 61.2251 331.861 63.087C338.004 64.8772 345.291 65.7724 353.723 65.7724C361.071 65.7724 367.515 65.1637 373.056 63.9463C378.718 62.7289 383.295 60.9028 386.788 58.468C390.281 56.0333 392.63 53.0614 393.835 49.5524H431.416ZM459.794 2.71867H541V83.2813H518.051V12.3862L528.422 22.4834H472.593L482.192 15.0716C482.78 19.798 483.185 24.3453 483.406 28.7136C483.626 33.0102 483.737 37.0921 483.737 40.9591C483.737 51.2711 482.78 59.6854 480.868 66.202C478.955 72.6471 475.94 77.3734 471.82 80.3811C467.701 83.3887 462.368 84.8926 455.822 84.8926C452.953 84.8926 450.121 84.6061 447.326 84.0333C444.605 83.4604 442.104 82.601 439.824 81.4552V62.9795C443.06 64.1969 446.039 64.8056 448.761 64.8056C453.542 64.8056 456.962 62.6931 459.022 58.468C461.155 54.243 462.221 47.3325 462.221 37.7366C462.221 33.0818 462.001 27.8542 461.559 22.0537C461.192 16.2532 460.603 9.80818 459.794 2.71867Z"/>
</mask>
<path d="M102.176 49.5524C101.32 56.6419 98.6715 62.8721 94.2319 68.243C89.7923 73.5422 83.9507 77.6598 76.7071 80.5959C69.5414 83.532 61.2853 85 51.9387 85C41.7354 85 32.8172 83.2455 25.1842 79.7366C17.5512 76.2276 11.5928 71.3223 7.30893 65.0205C3.10297 58.7187 1 51.3785 1 43C1 34.6215 3.10297 27.2813 7.30893 20.9795C11.5928 14.6777 17.5512 9.77238 25.1842 6.26343C32.8172 2.75448 41.7354 1 51.9387 1C61.2853 1 69.5414 2.46803 76.7071 5.40409C83.9507 8.34015 89.7923 12.4936 94.2319 17.8645C98.6715 23.1637 101.32 29.3581 102.176 36.4476H77.8754C77.0965 33.0102 75.5777 30.11 73.319 27.7468C71.0602 25.312 68.1005 23.4501 64.4398 22.1611C60.8569 20.8721 56.6899 20.2276 51.9387 20.2276C46.4866 20.2276 41.7743 21.1586 37.8021 23.0205C33.8298 24.8107 30.7921 27.4246 28.6892 30.8619C26.5862 34.2276 25.5347 38.2737 25.5347 43C25.5347 47.7263 26.5862 51.8082 28.6892 55.2455C30.7921 58.6113 33.8298 61.2251 37.8021 63.087C41.7743 64.8772 46.4866 65.7724 51.9387 65.7724C56.6899 65.7724 60.8569 65.1637 64.4398 63.9463C68.1005 62.7289 71.0602 60.9028 73.319 58.468C75.5777 56.0333 77.0965 53.0614 77.8754 49.5524H102.176ZM156.558 2.71867V83.2813H148.311V10.6675L150.153 11.2046L138.013 83.2813H129.222L117.039 11.4194L118.923 10.8824V83.2813H110.676V2.71867H124.072L135.334 71.8951H131.985L143.162 2.71867H156.558ZM165.215 83.2813V2.71867H186.306V75.7622L176.83 65.7724H206.582C210.046 65.7724 212.729 64.8414 214.631 62.9795C216.601 61.1176 217.586 58.6113 217.586 55.4604C217.586 52.2378 216.601 49.7315 214.631 47.9412C212.729 46.1509 210.046 45.2558 206.582 45.2558H174.996V27.6394H207.906C214.359 27.6394 219.895 28.821 224.514 31.1841C229.201 33.4757 232.767 36.6982 235.213 40.8517C237.726 45.0051 238.983 49.8747 238.983 55.4604C238.983 61.046 237.726 65.9514 235.213 70.1765C232.767 74.3299 229.201 77.5524 224.514 79.844C219.895 82.1355 214.359 83.2813 207.906 83.2813H165.215ZM245.3 2.71867H266.391V83.2813H245.3V2.71867ZM431.416 49.5524C430.091 56.6419 425.996 62.8721 419.13 68.243C412.264 73.5422 403.23 77.6598 392.028 80.5959C380.946 83.532 368.178 85 353.723 85C337.944 85 324.152 83.2455 312.347 79.7366C300.542 76.2276 291.328 71.3223 284.703 65.0205C278.198 58.7187 274.946 51.3785 274.946 43C274.946 34.6215 278.198 27.2813 284.703 20.9795C291.328 14.6777 300.542 9.77238 312.347 6.26343C324.152 2.75448 337.944 1 353.723 1C368.178 1 380.946 2.46803 392.028 5.40409C403.23 8.34015 412.264 12.4936 419.13 17.8645C425.996 23.1637 430.091 29.3581 431.416 36.4476H393.835C392.63 33.0102 390.281 30.11 386.788 27.7468C383.295 25.312 378.718 23.4501 373.056 22.1611C367.515 20.8721 361.071 20.2276 353.723 20.2276C345.291 20.2276 338.004 21.1586 331.861 23.0205C325.718 24.8107 321.02 27.4246 317.767 30.8619C314.515 34.2276 312.889 38.2737 312.889 43C312.889 47.7263 314.515 51.8082 317.767 55.2455C321.02 58.6113 325.718 61.2251 331.861 63.087C338.004 64.8772 345.291 65.7724 353.723 65.7724C361.071 65.7724 367.515 65.1637 373.056 63.9463C378.718 62.7289 383.295 60.9028 386.788 58.468C390.281 56.0333 392.63 53.0614 393.835 49.5524H431.416ZM459.794 2.71867H541V83.2813H518.051V12.3862L528.422 22.4834H472.593L482.192 15.0716C482.78 19.798 483.185 24.3453 483.406 28.7136C483.626 33.0102 483.737 37.0921 483.737 40.9591C483.737 51.2711 482.78 59.6854 480.868 66.202C478.955 72.6471 475.94 77.3734 471.82 80.3811C467.701 83.3887 462.368 84.8926 455.822 84.8926C452.953 84.8926 450.121 84.6061 447.326 84.0333C444.605 83.4604 442.104 82.601 439.824 81.4552V62.9795C443.06 64.1969 446.039 64.8056 448.761 64.8056C453.542 64.8056 456.962 62.6931 459.022 58.468C461.155 54.243 462.221 47.3325 462.221 37.7366C462.221 33.0818 462.001 27.8542 461.559 22.0537C461.192 16.2532 460.603 9.80818 459.794 2.71867Z" stroke="var(--stroke-0, #FCF8C9)" stroke-width="2" mask="url(#path-1-outside-1_0_4)"/>
</g>
</svg>
